<svg width="263" height="61" viewBox="0 0 263 61" fill="none" xmlns="http://www.w3.org/2000/svg">
<rect x="3" y="3" width="257" height="55" fill="#2B1F1F"/>
<path d="M115.466 24.174C116.282 23.514 116.852 23.184 117.176 23.184C117.512 23.184 118.04 23.502 118.76 24.138C119.492 24.762 119.948 25.206 120.128 25.47C120.308 25.722 120.398 26.142 120.398 26.73C120.398 27.318 120.308 27.762 120.128 28.062C119.948 28.35 119.618 28.722 119.138 29.178C119.894 29.802 120.428 30.324 120.74 30.744C120.872 30.96 120.938 31.368 120.938 31.968C120.938 32.556 120.872 32.94 120.74 33.12C120.524 33.588 120.002 34.188 119.174 34.92C118.346 35.64 117.692 36 117.212 36H113.486V28.296C113.486 27.324 113.414 26.64 113.27 26.244C113.138 25.848 112.85 25.38 112.406 24.84L114.782 23.184C115.07 23.424 115.298 23.754 115.466 24.174ZM115.97 30.528V33.822H117.212C117.368 33.822 117.56 33.702 117.788 33.462C118.016 33.21 118.178 32.994 118.274 32.814C118.382 32.622 118.436 32.238 118.436 31.662C118.436 31.266 118.136 30.888 117.536 30.528H115.97ZM115.97 27.252V28.53H116.888C117.02 28.53 117.182 28.416 117.374 28.188C117.578 27.948 117.716 27.738 117.788 27.558C117.86 27.378 117.896 27.162 117.896 26.91C117.896 26.658 117.776 26.376 117.536 26.064C117.296 25.74 117.074 25.578 116.87 25.578C116.666 25.578 116.348 25.656 115.916 25.812C115.952 26.28 115.97 26.76 115.97 27.252ZM129.113 31.122V31.77H124.757C124.757 32.49 124.847 33.06 125.027 33.48C125.087 33.624 125.195 33.774 125.351 33.93C125.507 34.074 125.669 34.146 125.837 34.146C126.005 34.146 126.215 34.002 126.467 33.714C126.719 33.426 126.917 33.078 127.061 32.67L128.915 33.984C128.591 34.584 128.093 35.106 127.421 35.55C126.761 35.994 126.227 36.216 125.819 36.216C125.411 36.216 124.817 35.898 124.037 35.262C123.269 34.626 122.801 34.134 122.633 33.786C122.465 33.426 122.381 32.55 122.381 31.158C122.381 29.754 122.465 28.878 122.633 28.53C122.801 28.17 123.269 27.672 124.037 27.036C124.817 26.4 125.387 26.082 125.747 26.082C126.107 26.082 126.671 26.4 127.439 27.036C128.219 27.672 128.693 28.17 128.861 28.53C129.029 28.878 129.113 29.742 129.113 31.122ZM126.611 28.872C126.527 28.704 126.389 28.542 126.197 28.386C126.017 28.23 125.843 28.152 125.675 28.152C125.519 28.152 125.339 28.314 125.135 28.638C124.931 28.95 124.805 29.424 124.757 30.06H126.809C126.773 29.424 126.707 29.028 126.611 28.872ZM134.609 29.016C134.525 28.872 134.357 28.722 134.105 28.566C133.853 28.41 133.661 28.332 133.529 28.332C133.397 28.332 133.253 28.41 133.097 28.566C132.953 28.722 132.857 28.866 132.809 28.998C132.713 29.19 132.665 29.79 132.665 30.798C132.665 31.806 132.713 32.4 132.809 32.58C132.857 32.7 132.953 32.844 133.097 33.012C133.253 33.168 133.397 33.246 133.529 33.246C133.661 33.246 133.853 33.168 134.105 33.012C134.369 32.844 134.543 32.694 134.627 32.562C134.711 32.418 134.753 31.83 134.753 30.798C134.753 29.754 134.705 29.16 134.609 29.016ZM137.093 26.298V35.406C137.093 36.942 137.021 37.854 136.877 38.142C136.745 38.442 136.265 38.91 135.437 39.546C134.609 40.182 133.985 40.5 133.565 40.5C133.157 40.5 132.641 40.29 132.017 39.87C131.393 39.462 130.925 38.988 130.613 38.448L132.467 37.17L132.647 37.404C133.091 37.968 133.397 38.25 133.565 38.25C133.745 38.25 133.943 38.172 134.159 38.016C134.387 37.86 134.537 37.692 134.609 37.512C134.693 37.344 134.735 36.612 134.735 35.316L134.789 34.614C133.973 35.202 133.415 35.496 133.115 35.496C132.827 35.496 132.365 35.178 131.729 34.542C131.093 33.906 130.709 33.432 130.577 33.12C130.445 32.808 130.379 32.034 130.379 30.798C130.379 29.562 130.445 28.788 130.577 28.476C130.709 28.152 131.093 27.672 131.729 27.036C132.365 26.4 132.851 26.082 133.187 26.082C133.523 26.082 134.165 26.466 135.113 27.234L135.329 26.298H137.093ZM138.451 26.298H140.827V32.526C140.827 33.138 140.899 33.612 141.043 33.948C141.187 34.284 141.415 34.578 141.727 34.83L139.747 36.216C138.883 35.532 138.451 34.56 138.451 33.3V26.298ZM139.675 22.536C139.807 22.536 140.101 22.734 140.557 23.13C141.013 23.514 141.241 23.778 141.241 23.922C141.241 24.054 141.007 24.318 140.539 24.714C140.083 25.11 139.789 25.308 139.657 25.308C139.537 25.308 139.249 25.116 138.793 24.732C138.337 24.336 138.109 24.072 138.109 23.94C138.109 23.796 138.337 23.526 138.793 23.13C139.261 22.734 139.555 22.536 139.675 22.536ZM145.268 36H142.892V29.79C142.892 29.178 142.82 28.704 142.676 28.368C142.532 28.032 142.304 27.738 141.992 27.486L143.972 26.1C144.416 26.46 144.746 26.874 144.962 27.342C145.85 26.502 146.474 26.082 146.834 26.082C147.206 26.082 147.758 26.418 148.49 27.09C149.234 27.75 149.606 28.404 149.606 29.052V32.526C149.606 33.138 149.678 33.612 149.822 33.948C149.966 34.284 150.194 34.578 150.506 34.83L148.526 36.216C147.662 35.532 147.23 34.56 147.23 33.3V29.304C147.23 29.1 147.122 28.89 146.906 28.674C146.69 28.446 146.486 28.332 146.294 28.332C146.114 28.332 145.772 28.584 145.268 29.088V36Z" fill="white"/>
<rect x="251" y="49" width="12" height="12" fill="#0F0F0F"/>
<rect x="239" y="49" width="12" height="12" fill="#0F0F0F"/>
<rect x="251" y="37" width="12" height="12" fill="#0F0F0F"/>
<rect y="49" width="12" height="12" fill="#0F0F0F"/>
<rect x="12" y="49" width="12" height="12" fill="#0F0F0F"/>
<rect y="37" width="12" height="12" fill="#0F0F0F"/>
<rect x="251" width="12" height="12" fill="#0F0F0F"/>
<rect x="239" width="12" height="12" fill="#0F0F0F"/>
<rect x="251" y="12" width="12" height="12" fill="#0F0F0F"/>
<rect width="12" height="12" fill="#0F0F0F"/>
<rect x="12" width="12" height="12" fill="#0F0F0F"/>
<rect y="12" width="12" height="12" fill="#0F0F0F"/>
<rect x="3" y="3" width="257" height="55" stroke="#0F0F0F" stroke-width="6"/>
</svg>
