<svg width="263" height="61" viewBox="0 0 263 61" fill="none" xmlns="http://www.w3.org/2000/svg">
<rect x="3" y="3" width="257" height="55" fill="#DA8B14"/>
<path d="M107.648 30.546V28.854C107.648 27.354 107.768 26.394 108.008 25.974C108.248 25.554 108.758 24.984 109.538 24.264C110.33 23.544 110.918 23.184 111.302 23.184C111.962 23.184 112.718 23.568 113.57 24.336C114.422 25.092 114.962 25.926 115.19 26.838L113.192 28.224C113 27.576 112.694 26.982 112.274 26.442C111.854 25.89 111.56 25.614 111.392 25.614C111.092 25.614 110.75 25.908 110.366 26.496C110.21 26.724 110.132 27.51 110.132 28.854V30.546C110.132 31.926 110.21 32.712 110.366 32.904C110.75 33.492 111.092 33.786 111.392 33.786C111.56 33.786 111.854 33.552 112.274 33.084C112.694 32.604 113 32.076 113.192 31.5L115.19 32.904C114.962 33.732 114.422 34.494 113.57 35.19C112.718 35.874 111.962 36.216 111.302 36.216C110.918 36.216 110.33 35.856 109.538 35.136C108.758 34.416 108.248 33.846 108.008 33.426C107.768 33.006 107.648 32.046 107.648 30.546ZM119.358 36H116.982V26.172C116.982 25.56 116.91 25.092 116.766 24.768C116.622 24.444 116.394 24.15 116.082 23.886L118.062 22.5C118.926 23.184 119.358 24.15 119.358 25.398V27.072C120.102 26.412 120.642 26.082 120.978 26.082C121.314 26.082 121.848 26.418 122.58 27.09C123.324 27.75 123.696 28.404 123.696 29.052V32.526C123.696 33.138 123.768 33.612 123.912 33.948C124.056 34.284 124.284 34.578 124.596 34.83L122.616 36.216C121.752 35.532 121.32 34.56 121.32 33.3V29.304C121.32 29.1 121.212 28.89 120.996 28.674C120.78 28.446 120.576 28.332 120.384 28.332C120.204 28.332 119.862 28.584 119.358 29.088V36ZM128.32 33.876C128.512 34.056 128.662 34.146 128.77 34.146C128.878 34.146 129.022 34.056 129.202 33.876C129.394 33.696 129.532 33.534 129.616 33.39C129.772 33.126 129.85 32.382 129.85 31.158C129.85 29.934 129.772 29.184 129.616 28.908C129.532 28.764 129.394 28.602 129.202 28.422C129.022 28.242 128.878 28.152 128.77 28.152C128.662 28.152 128.512 28.242 128.32 28.422C128.14 28.602 128.008 28.764 127.924 28.908C127.768 29.172 127.69 29.916 127.69 31.14C127.69 32.364 127.768 33.114 127.924 33.39C128.008 33.534 128.14 33.696 128.32 33.876ZM130.39 35.334C129.658 35.922 129.118 36.216 128.77 36.216C128.422 36.216 127.876 35.922 127.132 35.334C126.4 34.746 125.95 34.308 125.782 34.02C125.53 33.576 125.404 32.616 125.404 31.14C125.404 29.664 125.53 28.71 125.782 28.278C125.95 27.99 126.4 27.552 127.132 26.964C127.876 26.376 128.422 26.082 128.77 26.082C129.118 26.082 129.658 26.376 130.39 26.964C131.134 27.552 131.59 27.99 131.758 28.278C132.01 28.71 132.136 29.664 132.136 31.14C132.136 32.616 132.01 33.576 131.758 34.02C131.59 34.308 131.134 34.746 130.39 35.334ZM136.125 33.876C136.317 34.056 136.467 34.146 136.575 34.146C136.683 34.146 136.827 34.056 137.007 33.876C137.199 33.696 137.337 33.534 137.421 33.39C137.577 33.126 137.655 32.382 137.655 31.158C137.655 29.934 137.577 29.184 137.421 28.908C137.337 28.764 137.199 28.602 137.007 28.422C136.827 28.242 136.683 28.152 136.575 28.152C136.467 28.152 136.317 28.242 136.125 28.422C135.945 28.602 135.813 28.764 135.729 28.908C135.573 29.172 135.495 29.916 135.495 31.14C135.495 32.364 135.573 33.114 135.729 33.39C135.813 33.534 135.945 33.696 136.125 33.876ZM138.195 35.334C137.463 35.922 136.923 36.216 136.575 36.216C136.227 36.216 135.681 35.922 134.937 35.334C134.205 34.746 133.755 34.308 133.587 34.02C133.335 33.576 133.209 32.616 133.209 31.14C133.209 29.664 133.335 28.71 133.587 28.278C133.755 27.99 134.205 27.552 134.937 26.964C135.681 26.376 136.227 26.082 136.575 26.082C136.923 26.082 137.463 26.376 138.195 26.964C138.939 27.552 139.395 27.99 139.563 28.278C139.815 28.71 139.941 29.664 139.941 31.14C139.941 32.616 139.815 33.576 139.563 34.02C139.395 34.308 138.939 34.746 138.195 35.334ZM147.44 33.084C147.44 33.456 146.978 34.074 146.054 34.938C145.13 35.79 144.44 36.216 143.984 36.216C143.54 36.216 142.982 35.994 142.31 35.55C141.65 35.106 141.158 34.584 140.834 33.984L142.688 32.706C143.288 33.546 143.726 33.966 144.002 33.966C144.206 33.966 144.458 33.864 144.758 33.66C145.058 33.456 145.208 33.264 145.208 33.084C145.208 33.036 145.064 32.934 144.776 32.778C144.488 32.61 144.134 32.406 143.714 32.166C143.306 31.914 142.898 31.638 142.49 31.338C142.082 31.026 141.734 30.648 141.446 30.204C141.158 29.76 141.014 29.31 141.014 28.854C141.014 28.398 141.422 27.822 142.238 27.126C143.054 26.43 143.678 26.082 144.11 26.082C144.554 26.082 145.106 26.304 145.766 26.748C146.438 27.192 146.936 27.714 147.26 28.314L145.406 29.592C144.806 28.752 144.368 28.332 144.092 28.332C143.948 28.332 143.768 28.416 143.552 28.584C143.348 28.74 143.246 28.884 143.246 29.016C143.246 29.148 143.462 29.352 143.894 29.628C144.338 29.904 144.818 30.192 145.334 30.492C145.862 30.78 146.342 31.164 146.774 31.644C147.218 32.112 147.44 32.592 147.44 33.084ZM155.076 31.122V31.77H150.72C150.72 32.49 150.81 33.06 150.99 33.48C151.05 33.624 151.158 33.774 151.314 33.93C151.47 34.074 151.632 34.146 151.8 34.146C151.968 34.146 152.178 34.002 152.43 33.714C152.682 33.426 152.88 33.078 153.024 32.67L154.878 33.984C154.554 34.584 154.056 35.106 153.384 35.55C152.724 35.994 152.19 36.216 151.782 36.216C151.374 36.216 150.78 35.898 150 35.262C149.232 34.626 148.764 34.134 148.596 33.786C148.428 33.426 148.344 32.55 148.344 31.158C148.344 29.754 148.428 28.878 148.596 28.53C148.764 28.17 149.232 27.672 150 27.036C150.78 26.4 151.35 26.082 151.71 26.082C152.07 26.082 152.634 26.4 153.402 27.036C154.182 27.672 154.656 28.17 154.824 28.53C154.992 28.878 155.076 29.742 155.076 31.122ZM152.574 28.872C152.49 28.704 152.352 28.542 152.16 28.386C151.98 28.23 151.806 28.152 151.638 28.152C151.482 28.152 151.302 28.314 151.098 28.638C150.894 28.95 150.768 29.424 150.72 30.06H152.772C152.736 29.424 152.67 29.028 152.574 28.872Z" fill="#0F0F0F"/>
<path fill-rule="evenodd" clip-rule="evenodd" d="M239 0H251H263V12V24H251V12H239V0Z" fill="#31251E"/>
<path fill-rule="evenodd" clip-rule="evenodd" d="M263 37H251V49H239V61H251H263V49V37Z" fill="#31251E"/>
<path fill-rule="evenodd" clip-rule="evenodd" d="M0 0H12H24V12H12V24H0V12V0Z" fill="#31251E"/>
<path fill-rule="evenodd" clip-rule="evenodd" d="M12 37H0V49V61H12H24V49H12V37Z" fill="#31251E"/>
<rect x="3" y="3" width="257" height="55" stroke="#31251E" stroke-width="6"/>
</svg>
